<mxfile host="app.diagrams.net" modified="2021-10-19T03:30:33.448Z" agent="5.0 (Windows)" etag="I-Bec2b0N1qLBg6yI3bJ" version="15.5.5" type="github">
  <diagram id="5igw-gTgJEMbKEnSBbh8" name="Page-1">
    <mxGraphModel dx="1421" dy="792" grid="1" gridSize="10" guides="1" tooltips="1" connect="1" arrows="1" fold="1" page="1" pageScale="1" pageWidth="827" pageHeight="1169" math="0" shadow="0">
      <root>
        <mxCell id="0" />
        <mxCell id="1" parent="0" />
        <mxCell id="j_6wu_zNKLBvf5CliZnE-1" value="&lt;font style=&quot;font-size: 24px&quot;&gt;initInotify()&lt;/font&gt;" style="rounded=0;whiteSpace=wrap;html=1;" vertex="1" parent="1">
          <mxGeometry x="354" y="70" width="120" height="60" as="geometry" />
        </mxCell>
        <mxCell id="j_6wu_zNKLBvf5CliZnE-3" value="" style="endArrow=classic;html=1;rounded=0;fontSize=24;exitX=0.5;exitY=1;exitDx=0;exitDy=0;" edge="1" parent="1" source="j_6wu_zNKLBvf5CliZnE-1">
          <mxGeometry width="50" height="50" relative="1" as="geometry">
            <mxPoint x="390" y="430" as="sourcePoint" />
            <mxPoint x="414" y="260" as="targetPoint" />
          </mxGeometry>
        </mxCell>
        <mxCell id="j_6wu_zNKLBvf5CliZnE-5" value="" style="endArrow=classic;html=1;rounded=0;fontSize=24;" edge="1" parent="1">
          <mxGeometry relative="1" as="geometry">
            <mxPoint x="414" y="200" as="sourcePoint" />
            <mxPoint x="514" y="200" as="targetPoint" />
          </mxGeometry>
        </mxCell>
        <mxCell id="j_6wu_zNKLBvf5CliZnE-6" value="Label" style="edgeLabel;resizable=0;html=1;align=center;verticalAlign=middle;fontSize=24;" connectable="0" vertex="1" parent="j_6wu_zNKLBvf5CliZnE-5">
          <mxGeometry relative="1" as="geometry" />
        </mxCell>
        <mxCell id="j_6wu_zNKLBvf5CliZnE-7" value="open_inotify_fd()" style="rounded=0;whiteSpace=wrap;html=1;fontSize=24;" vertex="1" parent="1">
          <mxGeometry x="520" y="170" width="190" height="60" as="geometry" />
        </mxCell>
        <mxCell id="j_6wu_zNKLBvf5CliZnE-8" value="queue_create()" style="rounded=0;whiteSpace=wrap;html=1;fontSize=24;" vertex="1" parent="1">
          <mxGeometry x="316" y="260" width="196" height="60" as="geometry" />
        </mxCell>
      </root>
    </mxGraphModel>
  </diagram>
</mxfile>
